<svg width="36" height="36" viewBox="0 0 36 36" fill="none" xmlns="http://www.w3.org/2000/svg">
<rect x="0.45" y="0.45" width="35.1" height="35.1" rx="17.55" fill="white"/>
<rect x="0.45" y="0.45" width="35.1" height="35.1" rx="17.55" stroke="#DEDEE0" stroke-width="0.9"/>
<path d="M18 9.44922C22.722 9.44922 26.5498 12.673 26.5498 16.6494C26.5498 18.3528 25.8462 19.9166 24.6719 21.1494H24.75L24.5264 21.2979C23.793 22.0272 22.8909 22.6311 21.8701 23.0684L16.3418 26.7549C15.6083 27.2436 14.6825 26.4957 15.0059 25.6758L15.8193 23.6113C12.1539 22.7993 9.4503 19.991 9.4502 16.6494C9.4502 12.673 13.2781 9.44931 18 9.44922Z" fill="#0050FC"/>
<circle cx="13.9502" cy="16.6484" r="1.125" fill="white"/>
<circle cx="18" cy="16.6484" r="1.125" fill="white"/>
<circle cx="22.0503" cy="16.6484" r="1.125" fill="white"/>
</svg>
